#!OML:ASF F:\VICON\USERDATA\Patient Classification 1\PLAYGROUND\JustinFriday\JustinFriday.ASF
:FULLY-SPECIFIED
:DEGREES
2960
root -13.634 30.4524 -9.44049 277.56 83.121 -115.715
lowerback 25.0155 2.28628 4.0886
upperback 10.1873 4.89968 4.00373
thorax -2.65259 2.73353 0.694551
lowerneck -5.39702 7.77194 -0.566986
upperneck -5.73215 10.4701 -5.88007
head -0.586066 5.40452 -1.58867
rclavicle -3.89618e-014 -4.92986e-014
rhumerus -5.85577 15.7947 -70.5572
rradius 70.7141
rwrist 26.1241
rhand -35.3377 -377.272
rfingers 7.12502
rthumb -8.4707 -407.082
lclavicle -3.89618e-014 -4.92986e-014
lhumerus 1.96831 -37.8731 76.2376
lradius 65.4315
lwrist -28.8394
lhand -33.636 -26.394
lfingers 7.12502
lthumb -6.82822 3.47594
rfemur -28.5294 4.86767 28.0433
rtibia 31.2516
rfoot -35.1344 -12.3667
rtoes 3.84584
lfemur -32.3713 5.47089 -14.9349
ltibia 36.0056
lfoot -34.9188 -1.52019
ltoes -4.62899
2961
root -13.6617 30.46 -9.45233 280.631 82.711 -112.834
lowerback 24.7085 1.62198 3.6088
upperback 10.4567 3.89086 3.41116
thorax -2.2056 2.25434 0.613339
lowerneck -5.91576 8.51164 2.26271
upperneck -4.60826 11.3085 -7.38964
head 0.135672 5.73513 -2.43924
rclavicle -4.92986e-014 -1.66979e-014
rhumerus -4.85591 18.3312 -70.6398
rradius 71.8914
rwrist 24.5524
rhand -35.4067 -376.611
rfingers 7.12502
rthumb -8.53731 -406.418
lclavicle -4.92986e-014 -1.66979e-014
lhumerus 1.46782 -35.364 74.2486
lradius 65.9191
lwrist -28.9663
lhand -33.4215 -26.999
lfingers 7.12502
lthumb -6.62116 2.87748
rfemur -28.869 4.95295 28.4344
rtibia 31.1993
rfoot -34.8543 -12.441
rtoes 3.122
lfemur -32.9155 6.22015 -14.6827
ltibia 36.4094
lfoot -34.5933 0.82662
ltoes -11.7428
2962
root -13.6928 30.4672 -9.47776 283.701 82.2327 -109.851
lowerback 24.8619 1.9143 4.63606
upperback 10.3859 4.49507 3.44082
thorax -2.27151 2.57063 -0.094799
lowerneck -5.77005 7.66192 2.17308
upperneck -3.24246 10.1941 -7.61098
head 0.499834 5.12493 -2.50757
rclavicle 9.30312e-014 6.99722e-014
rhumerus -4.76909 17.0962 -70.5622
rradius 71.3157
rwrist 25.0878
rhand -35.633 -374.966
rfingers 7.12502
rthumb -8.75568 -404.764
lclavicle 9.30312e-014 6.99722e-014
lhumerus 2.42619 -35.481 75.3706
lradius 64.6194
lwrist -29.8873
lhand -33.47 -27.8706
lfingers 7.12502
lthumb -6.66796 2.0044
rfemur -29.0656 4.64714 28.9811
rtibia 31.1716
rfoot -34.5106 -12.4658
rtoes 1.30038
lfemur -33.2655 6.80986 -14.3292
ltibia 36.7886
lfoot -34.5333 1.37157
ltoes -13.4295
2963
root -13.7265 30.4718 -9.48141 286.848 82.6946 -106.792
lowerback 25.0987 2.80317 4.74323
upperback 9.84285 5.68702 4.06407
thorax -3.00403 3.10128 0.167382
lowerneck -3.74902 6.10884 -0.340437
upperneck -2.14119 8.21668 -6.9424
head 0.258476 4.13893 -1.97635
rclavicle 3.65764e-014 -4.77083e-015
rhumerus -4.37652 13.5853 -70.0355
rradius 66.3153
rwrist 23.5018
rhand -39.0573 -354.148
rfingers 7.12502
rthumb -12.0589 -383.78
lclavicle 3.65764e-014 -4.77083e-015
lhumerus 1.80502 -36.8676 78.5514
lradius 63.885
lwrist -30.8065
lhand -34.2322 -28.2283
lfingers 7.12502
lthumb -7.40368 1.6222
rfemur -29.4433 4.48444 28.5251
rtibia 31.3509
rfoot -34.2855 -12.6287
rtoes -0.464015
lfemur -33.5866 7.2669 -14.9706
ltibia 36.9818
lfoot -34.5297 1.5587
ltoes -14.1467
2964
root -13.7554 30.4774 -9.49217 289.376 83.0277 -104.152
lowerback 25.3584 2.98599 4.30684
upperback 9.81732 5.8431 4.17603
thorax -3.21084 3.15989 0.470773
lowerneck -3.59172 5.38607 -1.22665
upperneck -0.84624 7.32489 -6.35898
head 0.543847 3.65231 -1.64291
rclavicle -2.06736e-014 4.29375e-014
rhumerus -4.2286 13.5642 -69.7761
rradius 66.2762
rwrist 24.0075
rhand -38.7021 -356.193
rfingers 7.12502
rthumb -11.7163 -385.846
lclavicle -2.06736e-014 4.29375e-014
lhumerus 1.61147 -37.7554 78.2686
lradius 64.7363
lwrist -30.0877
lhand -34.5346 -27.6979
lfingers 7.12502
lthumb -7.69561 2.14207
rfemur -29.5643 4.28511 28.1487
rtibia 31.4976
rfoot -34.2925 -12.6265
rtoes -1.18694
lfemur -33.693 7.63078 -15.4614
ltibia 37.2094
lfoot -34.5517 0.580345
ltoes -12.5515
2965
root -13.7889 30.4842 -9.5189 286.356 82.9647 -106.755
lowerback 26.1466 2.52009 4.6631
upperback 9.96455 5.37842 3.79619
thorax -3.36148 2.95357 -0.0527593
lowerneck -4.73027 4.84335 -0.568703
upperneck 0.515657 6.63457 -5.29955
head 1.12704 3.25377 -1.38867
rclavicle -2.54444e-014 2.8625e-014
rhumerus -4.42027 14.02 -69.9267
rradius 67.5433
rwrist 23.4157
rhand -38.6141 -355.76
rfingers 7.12502
rthumb -11.6315 -385.417
lclavicle -2.54444e-014 2.8625e-014
lhumerus 2.31273 -36.8003 77.3462
lradius 64.31
lwrist -30.5236
lhand -34.2917 -28.6319
lfingers 7.12502
lthumb -7.46116 1.21654
rfemur -29.3372 3.76339 28.2395
rtibia 31.6838
rfoot -34.6188 -12.3598
rtoes 0.106372
lfemur -33.5173 7.08128 -15.3281
ltibia 37.3754
lfoot -34.355 -1.16364
ltoes -8.19455
2966
root -13.8223 30.492 -9.5161 285.15 82.5302 -107.555
lowerback 26.9288 1.86239 4.38442
upperback 10.234 4.54708 3.64101
thorax -3.46516 2.56197 0.136732
lowerneck -6.21055 4.52625 -1.38882
upperneck 1.5535 6.25715 -2.77899
head 1.57767 3.06218 -0.43116
rclavicle 1.82882e-014 2.10712e-014
rhumerus -3.8477 16.1162 -69.846
rradius 68.8206
rwrist 22.4443
rhand -38.6901 -356.83
rfingers 7.12502
rthumb -11.7048 -386.483
lclavicle 1.82882e-014 2.10712e-014
lhumerus 2.1736 -35.033 75.8487
lradius 64.9545
lwrist -30.399
lhand -34.1426 -28.8497
lfingers 7.12502
lthumb -7.31719 1.0038
rfemur -29.0064 3.87249 28.6383
rtibia 31.6926
rfoot -34.6279 -12.549
rtoes 1.13573
lfemur -33.3912 6.41408 -14.7101
ltibia 37.7229
lfoot -34.2618 -1.89412
ltoes -4.9575
2967
root -13.841 30.508 -9.52347 285.432 82.4736 -107.142
lowerback 27.2894 1.55797 3.20799
upperback 10.3365 3.91416 3.74607
thorax -3.62217 2.23346 1.08564
lowerneck -7.04036 4.4397 -0.997698
upperneck 3.3529 6.15818 -2.65136
head 2.32601 2.97327 -0.415538
rclavicle 7.55382e-014 7.27552e-014
rhumerus -3.25259 18.0426 -69.4924
rradius 69.5489
rwrist 21.7602
rhand -38.333 -356.506
rfingers 7.12502
rthumb -11.3604 -386.178
lclavicle 7.55382e-014 7.27552e-014
lhumerus 1.7654 -33.1615 75.2275
lradius 65.2375
lwrist -30.4241
lhand -34.1098 -28.8434
lfingers 7.12502
lthumb -7.28551 1.01113
rfemur -29.4342 -4.04744 30.467
rtibia 31.8118
rfoot -35.1075 -4.37957
rtoes 2.69853
lfemur -33.4672 6.56752 -14.5959
ltibia 37.9967
lfoot -34.0378 -4.63924
ltoes 0.94339
2968
root -13.8857 30.5121 -9.55295 285.71 81.6383 -107.299
lowerback 26.8695 1.18363 4.74492
upperback 10.5257 3.7644 3.3539
thorax -3.08294 2.2159 -0.142756
lowerneck -7.89908 3.70487 -1.01892
upperneck 4.85543 5.17572 -1.78604
head 2.95677 2.4802 -0.142967
rclavicle -3.97569e-014 -4.67144e-014
rhumerus -2.63126 17.7765 -69.6254
rradius 69.9843
rwrist 21.6146
rhand -38.0972 -357.136
rfingers 7.12502
rthumb -11.133 -386.82
lclavicle -3.97569e-014 -4.67144e-014
lhumerus 2.4181 -34.6246 72.7259
lradius 66.9831
lwrist -29.0856
lhand -34.0099 -27.5095
lfingers 7.12502
lthumb -7.18916 2.3484
rfemur -29.7561 0.518309 30.1892
rtibia 31.9687
rfoot -35.4625 -6.27461
rtoes 9.18202
lfemur -34.3463 7.11731 -13.7951
ltibia 38.3131
lfoot -33.4433 -7.22763
ltoes 6.44057
2969
root -13.931 30.5205 -9.56532 288.251 82.2597 -105.177
lowerback 26.5455 1.12271 4.00683
upperback 10.5918 3.46538 3.18236
thorax -2.89955 2.058 0.18615
lowerneck -8.49952 3.33088 -1.49864
upperneck 6.41709 4.78091 -1.83567
head 3.60093 2.24187 -0.0667253
rclavicle -2.38542e-014 -5.36719e-015
rhumerus -2.00555 18.2584 -69.3026
rradius 70.1159
rwrist 21.2841
rhand -38.7049 -354.831
rfingers 7.12502
rthumb -11.7191 -384.483
lclavicle -2.38542e-014 -5.36719e-015
lhumerus 2.61412 -32.2075 73.7573
lradius 65.7525
lwrist -30.891
lhand -33.9786 -28.7146
lfingers 7.12502
lthumb -7.15895 1.14428
rfemur -30.7634 -2.7196 30.221
rtibia 32.2522
rfoot -35.3526 -1.92308
rtoes 11.1732
lfemur -35.1557 7.8033 -14.8927
ltibia 38.4618
lfoot -33.2499 -6.9873
ltoes 5.52341
2970
root -13.9662 30.5234 -9.56737 289.339 82.775 -104.151
lowerback 26.5401 1.31518 3.48381
upperback 10.6124 3.57082 3.05833
thorax -2.89639 2.09804 0.319091
lowerneck -8.75566 2.81998 -1.41246
upperneck 7.94273 4.18315 -2.29604
head 4.20872 1.90193 -0.252011
rclavicle -1.59028e-014 -3.45885e-014
rhumerus -2.09164 18.9129 -69.1881
rradius 72.63
rwrist 24.9109
rhand -34.5769 -373.51
rfingers 7.12502
rthumb -7.73644 -403.349
lclavicle -1.59028e-014 -3.45885e-014
lhumerus 2.81602 -32.5049 73.557
lradius 65.9151
lwrist -30.8915
lhand -34.0694 -28.5802
lfingers 7.12502
lthumb -7.24656 1.27568
rfemur -30.97 -2.26233 29.5146
rtibia 32.3415
rfoot -35.1319 -3.03692
rtoes 8.75035
lfemur -35.5975 8.28911 -15.7308
ltibia 38.7619
lfoot -33.1815 -6.4261
ltoes 3.02259
2971
root -13.9944 30.5293 -9.56571 288.466 82.6637 -104.763
lowerback 26.9026 1.35209 3.55867
upperback 10.6889 3.67395 3.13864
thorax -2.98235 2.15305 0.32345
lowerneck -7.80711 1.97761 -2.69473
upperneck 8.44526 3.09134 -1.13102
head 4.14819 1.38252 0.286172
rclavicle -4.37326e-014 -5.1684e-015
rhumerus -1.54632 17.5369 -68.9721
rradius 70.0059
rwrist 21.2654
rhand -38.7039 -354.807
rfingers 7.12502
rthumb -11.7181 -384.459
lclavicle -4.37326e-014 -5.1684e-015
lhumerus 3.51696 -34.0133 72.5688
lradius 66.766
lwrist -29.6868
lhand -34.1319 -27.3718
lfingers 7.12502
lthumb -7.30686 2.48206
rfemur -30.8777 -4.55848 30.2784
rtibia 32.3904
rfoot -34.8939 -2.36404
rtoes 4.8426
lfemur -35.5601 7.93974 -15.4198
ltibia 39.0864
lfoot -33.0512 -6.42369
ltoes 2.33371
2972
root -14.0235 30.5399 -9.55774 290.008 81.8768 -102.765
lowerback 27.6474 1.53838 3.58807
upperback 10.6943 3.99831 3.50771
thorax -3.34784 2.30122 0.585095
lowerneck -8.47417 1.2857 -2.26207
upperneck 10.7547 2.33224 -2.17349
head 4.61846 0.93635 -0.150789
rclavicle 1.23246e-014 5.36719e-015
rhumerus -1.25931 17.8118 -68.7481
rradius 69.9642
rwrist 21.5429
rhand -38.874 -358.259
rfingers 7.12502
rthumb -11.8821 -387.902
lclavicle 1.23246e-014 5.36719e-015
lhumerus 3.00789 -34.2759 72.2678
lradius 67.754
lwrist -29.0346
lhand -34.4957 -27.1255
lfingers 7.12502
lthumb -7.65803 2.71584
rfemur -30.3521 -5.29326 31.3572
rtibia 32.3883
rfoot -34.8982 -2.82447
rtoes 0.871108
lfemur -35.2538 7.96096 -14.293
ltibia 39.4655
lfoot -32.7327 -7.60576
ltoes 5.04271
